<svg xmlns="http://www.w3.org/2000/svg" width="512" height="512" xml:space="preserve" style="fill-rule:evenodd;clip-rule:evenodd;stroke-linejoin:round;stroke-miterlimit:2" viewBox="0 0 512 512"><path d="M0 0h512v512H0z" style="fill:none"></path><path d="M277.527 125.43c54.013 9.523 94.966 49.596 108.225 99.315l-95.912 42.37 70.51 78.078c-30.18 37.594-79.394 58.008-130.221 49.046-74.23-13.089-123.794-83.874-110.705-158.104s83.874-123.794 158.103-110.705" style="fill:#f05;fill-rule:nonzero"></path><circle cx="251.737" cy="217.364" r="20.078" style="fill:#323232"></circle><path d="m313.487 30.36-8.989 92.206-26.363-6.572zM230.667 1.902l27.803 113.771-31.344 3.294zM145.023 17.239l64.538 103.54-30.778 13.703zM76.012 65.805l91.604 77.374-24.23 21.816zM23.717 135.598l110.18 43.057-15.279 27.566zM2.719 220.173l111.627 2.437-4.71 29.738zM22.841 296.946l87.315-27.535 4.151 23.546z" style="fill:#f05;fill-rule:nonzero"></path><path d="M487.112 260.031a2.51 2.51 0 0 0-2.51-2.51h-93.639a2.51 2.51 0 0 0-2.509 2.51v36.803a2.51 2.51 0 0 0 2.509 2.509h93.639a2.51 2.51 0 0 0 2.51-2.509z" style="fill:#f05"></path><circle cx="482.822" cy="287.547" r="28.954" style="fill:#f05"></circle><circle cx="394.888" cy="287.547" r="28.954" style="fill:#f05"></circle><path d="M398.104 273.789c0-.692-.562-1.254-1.255-1.254h-3.924c-.693 0-1.255.562-1.255 1.254v27.517c0 .693.562 1.255 1.255 1.255h3.924c.693 0 1.255-.562 1.255-1.255z" style="fill:#323232"></path><path d="M381.129 284.33c-.693 0-1.255.563-1.255 1.255v3.925c0 .692.562 1.255 1.255 1.255h27.516c.693 0 1.255-.563 1.255-1.255v-3.925c0-.692-.562-1.255-1.255-1.255z" style="fill:#323232"></path><circle cx="483.894" cy="276.824" r="4.289" style="fill:#323232"></circle><circle cx="483.894" cy="299.343" r="4.289" style="fill:#323232"></circle><circle cx="471.026" cy="287.547" r="4.289" style="fill:#323232"></circle><circle cx="495.69" cy="287.547" r="4.289" style="fill:#323232"></circle><path d="M119.758 434.176c-1.375-.248-1.375-2.221 0-2.47l39.705-7.191a1.255 1.255 0 0 1 1.478 1.234v14.384c0 .782-.709 1.374-1.478 1.235zM357.242 434.175c1.37-.252 1.37-2.215 0-2.467l-38.896-7.187a1.254 1.254 0 0 0-1.483 1.233v14.374c0 .784.711 1.375 1.483 1.234z" style="fill:#f05;fill-rule:nonzero"></path><path d="M317.49 419.137c0-.692-.562-1.255-1.255-1.255H160.627c-.692 0-1.254.563-1.254 1.255v27.608c0 .693.562 1.255 1.254 1.255h155.608c.693 0 1.255-.562 1.255-1.255z" style="fill:#f05"></path><circle cx="238.431" cy="433.207" r="6.275" style="fill:#323232"></circle><circle cx="266.039" cy="433.207" r="6.275" style="fill:#323232"></circle><circle cx="292.392" cy="433.207" r="6.275" style="fill:#323232"></circle><circle cx="210.824" cy="433.207" r="6.275" style="fill:#323232"></circle><circle cx="182.717" cy="433.207" r="6.275" style="fill:#323232"></circle></svg>