<svg viewBox="0 0 14 12" fill="none" xmlns="http://www.w3.org/2000/svg">
<path fill-rule="evenodd" clip-rule="evenodd" d="M2.40964 3.17905H2.3927C1.54551 3.17905 0.996246 2.62479 0.996246 1.92222C0.996246 1.20598 1.56175 0.66333 2.42588 0.66333C3.28931 0.66333 3.82021 1.20461 3.83715 1.92017C3.83715 2.62273 3.28931 3.17905 2.40964 3.17905ZM13.0037 11.3367H10.35V7.58459C10.35 6.60251 9.93483 5.93209 9.02193 5.93209C8.32376 5.93209 7.93545 6.3845 7.75473 6.82051C7.69503 6.95837 7.6961 7.14401 7.6972 7.33529L7.6975 7.41308V11.3367H5.0684C5.0684 11.3367 5.10229 4.69025 5.0684 4.08611H7.6975V5.22405C7.85286 4.72647 8.69299 4.0164 10.0336 4.0164C11.6969 4.0164 13.0037 5.05934 13.0037 7.30508V11.3367ZM3.63948 4.08589H1.29912V11.3365H3.63948V4.08589Z" fill="white"/>
</svg>
